<svg 
          width="523.0158081054688" 
          height="578.4000244140625" fill="none" 
          xmlns="http://www.w3.org/2000/svg">
          <path d="M 510.9561462402344 145.1649932861328 C 484.6751461029053 99.6299934387207 426.79516220092773 90.1000018119812 374.3461608886719 93.98300170898438 C 346.65316009521484 36.74300003051758 306.7341499328613 0 261.5081481933594 0 C 216.28214645385742 0 176.3641357421875 36.74300003051758 148.67013549804688 93.98300170898438 C 95.80413436889648 90.07000160217285 38.20314311981201 99.79999160766602 12.06014347076416 145.1649932861328 C -14.192856788635254 190.56499481201172 6.38014030456543 245.8100128173828 35.91814041137695 289.20001220703125 C 6.392141342163086 332.57201385498047 -14.20085620880127 387.8249855041504 12.06014347076416 433.2349853515625 C 38.3191442489624 478.76598358154297 95.9891357421875 488.31499218940735 148.67013549804688 484.4169921875 C 176.3641357421875 541.6579933166504 216.28714752197266 578.4000244140625 261.5081481933594 578.4000244140625 C 306.7291488647461 578.4000244140625 346.65316009521484 541.6569938659668 374.3461608886719 484.4169921875 C 426.77915954589844 488.2989921569824 484.60714530944824 478.9229850769043 510.9561462402344 433.2349853515625 C 537.2101459503174 387.8349838256836 516.6361446380615 332.5900115966797 487.09814453125 289.20001220703125 C 516.6241436004639 245.8290138244629 537.2161464691162 190.57499313354492 510.9561462402344 145.1649932861328 Z M 366.9691467285156 175.33999633789062 C 336.13514709472656 154.92499542236328 326.09915351867676 150.84000396728516 307.06915283203125 141.36700439453125 C 322.28321075439453 136.85825729370117 337.7800006866455 133.36522340774536 353.4571533203125 130.91099548339844 C 358.8787364959717 145.4259262084961 363.39145731925964 160.26429080963135 366.9691467285156 175.33999633789062 Z M 261.5081481933594 33.89099884033203 C 290.81414794921875 33.89099884033203 317.9661388397217 59.36899948120117 338.92913818359375 98.7229995727539 C 313.80813789367676 103.3299994468689 287.8071479797363 111.17000007629395 261.5081481933594 121.29100036621094 C 235.20814895629883 111.17000007629395 209.20814323425293 103.3299994468689 184.08714294433594 98.7229995727539 C 205.050142288208 59.36899948120117 232.2021484375 33.89099884033203 261.5081481933594 33.89099884033203 Z M 169.55413818359375 130.91099548339844 C 185.23134422302246 133.36494255065918 200.72815322875977 136.85798025131226 215.942138671875 141.36700439453125 C 195.09613800048828 151.74800395965576 186.32012939453125 155.29599571228027 156.04212951660156 175.33999633789062 C 159.6208517551422 160.26457023620605 164.13356828689575 145.42626857757568 169.55413818359375 130.91099548339844 Z M 41.387142181396484 416.2909851074219 C 27.61014175415039 392.4529857635498 33.78714370727539 356.7909927368164 57.84414291381836 317.7489929199219 C 75.29205322265625 338.0437870025635 94.57363319396973 356.6869888305664 115.44414520263672 373.4419860839844 C 119.45362758636475 399.9386234283447 125.9016637802124 426.0083484649658 134.7061309814453 451.3190002441406 C 89.06713104248047 452.5330002307892 55.14214038848877 440.0829849243164 41.390140533447266 416.2909851074219 L 41.387142181396484 416.2909851074219 Z M 110.08715057373047 323.0369873046875 C 98.95763492584229 312.4390640258789 88.52077865600586 301.13679122924805 78.84114074707031 289.20001220703125 C 88.52144527435303 277.2641248703003 98.95826530456543 265.9621877670288 110.08715057373047 255.36399841308594 C 108.64509081840515 277.8986186981201 108.64509081840515 300.5023670196533 110.08715057373047 323.0369873046875 Z M 115.43714141845703 204.9600067138672 C 94.5666332244873 221.71500778198242 75.28505325317383 240.3582248687744 57.83713912963867 260.65301513671875 C 33.787139892578125 221.6130142211914 27.607142448425293 185.94799995422363 41.387142181396484 162.11000061035156 C 58.381141662597656 132.72500038146973 100.7871322631836 126.06300210952759 134.72813415527344 127.01000213623047 C 125.906982421875 152.34261894226074 119.44912099838257 178.4372215270996 115.43714141845703 204.9600067138672 Z M 156.046142578125 403.05999755859375 C 186.88014221191406 423.4749984741211 196.91613578796387 427.5599899291992 215.94613647460938 437.0329895019531 C 200.73184776306152 441.54085063934326 185.23511695861816 445.0338861942291 169.55813598632812 447.489013671875 C 164.1375961303711 432.97407054901123 159.62489461898804 418.1360960006714 156.046142578125 403.0610046386719 L 156.046142578125 403.05999755859375 Z M 261.5081481933594 544.510009765625 C 232.2021484375 544.510009765625 205.050142288208 519.0320091247559 184.08714294433594 479.6780090332031 C 209.20714378356934 475.07100915908813 235.20914840698242 467.2309856414795 261.5081481933594 457.1099853515625 C 287.8081474304199 467.2309856414795 313.80813789367676 475.07100915908813 338.92913818359375 479.6780090332031 C 317.9671382904053 519.0320091247559 290.81514739990234 544.510009765625 261.5081481933594 544.510009765625 Z M 353.4631652832031 447.489990234375 C 337.78607273101807 445.0354468822479 322.28930377960205 441.54243326187134 307.0751647949219 437.03399658203125 C 327.9211654663086 426.65299701690674 336.69715881347656 423.1050052642822 366.97515869140625 403.0610046386719 C 363.39639163017273 418.13641929626465 358.8836908340454 432.9747018814087 353.4631652832031 447.489990234375 Z M 375.8151550292969 354.7139892578125 C 337.14515686035156 384.2779884338379 306.3041534423828 402.0929946899414 261.5091552734375 420.7879943847656 C 216.76515579223633 402.1139945983887 185.91814041137695 384.31299018859863 147.20314025878906 354.7139892578125 C 141.45982360839844 311.2261276245117 141.45982360839844 267.17186737060547 147.20314025878906 223.6840057373047 C 185.93714141845703 194.0710048675537 216.80315399169922 176.27000045776367 261.5091552734375 157.61199951171875 C 306.14515686035156 176.24199867248535 337.02415466308594 194.02900505065918 375.8151550292969 223.6840057373047 C 381.5591616630554 267.17215728759766 381.5591616630554 311.22684478759766 375.8151550292969 354.7149963378906 L 375.8151550292969 354.7139892578125 Z M 481.63214111328125 162.11399841308594 C 495.40914154052734 185.951997756958 489.23213958740234 221.61400604248047 465.1751403808594 260.656005859375 C 447.72720527648926 240.361234664917 428.4456558227539 221.71801948547363 407.5751647949219 204.96299743652344 C 403.56453037261963 178.43860244750977 397.1076364517212 152.3423194885254 388.2871398925781 127.00800323486328 C 422.21313858032227 126.06300324201584 464.63314056396484 132.71600151062012 481.63214111328125 162.11000061035156 L 481.63214111328125 162.11399841308594 Z M 412.9321594238281 255.3679962158203 C 424.06047916412354 265.9644069671631 434.496298789978 277.2650442123413 444.1751403808594 289.20001220703125 C 434.49583625793457 301.13583755493164 424.0600481033325 312.43775939941406 412.9321594238281 323.0360107421875 C 414.3753284215927 300.5017604827881 414.3753284215927 277.89824867248535 412.9321594238281 255.36399841308594 L 412.9321594238281 255.3679962158203 Z M 481.63214111328125 416.2950134277344 C 467.88014125823975 440.0830135345459 433.8251609802246 452.52099800109863 388.316162109375 451.322998046875 C 397.12060260772705 426.01233863830566 403.5686454772949 399.9426460266113 407.5781555175781 373.4460144042969 C 428.44863510131836 356.69097900390625 447.7302131652832 338.0477485656738 465.17816162109375 317.75299072265625 C 489.2311611175537 356.7919921875 495.4121627807617 392.4530143737793 481.6351623535156 416.2950134277344 L 481.63214111328125 416.2950134277344 Z" fill="rgb(212.00000256299973,245.00000059604645,255)"/>
        </svg>